<svg xmlns="http://www.w3.org/2000/svg" xmlns:xlink="http://www.w3.org/1999/xlink" width="100" height="100" viewBox="0 0 100 100">
  <g fill="#244B3A" font-family="Arial Narrow, Arial, sans-serif" font-size="9.5" font-weight="700" text-anchor="middle">
    <text x="20.4" y="43" transform="rotate(-60 20.4 43)">O</text>
    <text x="26.2" y="35.3" transform="rotate(-46.1 26.2 35.3)">N</text>
    <text x="42.4" y="25" transform="rotate(-18.3 42.4 25)">E</text>
    <text x="51.9" y="23.1" transform="rotate(-4.4 51.9 23.1)">S</text>
    <text x="61.6" y="23.5" transform="rotate(9.4 61.6 23.5)">T</text>
    <text x="79.2" y="31.1" transform="rotate(37.2 79.2 31.1)">L</text>
    <text x="86.1" y="37.9" transform="rotate(51.1 86.1 37.9)">À</text>
    <text x="91.3" y="46.1" transform="rotate(65 91.3 46.1)">.</text>
  </g>
  <path d="M15 72c13 1 23 6 33 4 7-1 11-5 17-7" fill="none" stroke="#C85B2F" stroke-width="1.5" stroke-linecap="round" stroke-dasharray="1 4" />
  <circle cx="68" cy="67" r="2.5" fill="#C85B2F" />
  <path d="M16 84 24 73l7 8 10-14 12 17" fill="none" stroke="#244B3A" stroke-width="2.2" stroke-linecap="round" stroke-linejoin="round" />
</svg>
